<svg
            width="215"
            height="202"
            viewBox="0 0 215 202"
            fill="none"
            xmlns="http://www.w3.org/2000/svg"
          >
            <g clip-path="url(#clip0_729_1817)">
              <path
                d="M156.091 114.627V170.428L165.446 185.639L166.158 186.797H203.069L203.815 114.627H156.091Z"
                fill="#E6E6E6"
              />
              <path
                opacity="0.1"
                d="M156.091 114.627V170.428L165.446 185.639L166.02 114.627H156.091Z"
                fill="black"
              />
              <path
                d="M66.982 113.139V168.94L57.6273 184.151L56.9154 185.308H20.0041L19.2583 113.139H66.982Z"
                fill="#E6E6E6"
              />
              <path
                opacity="0.1"
                d="M66.982 113.139V168.94L57.6273 184.151L57.0532 113.139H66.982Z"
                fill="black"
              />
              <path
                d="M215 112.023V115.371H14.4111V110.535L33.0531 100.862H198.595L215 112.023Z"
                fill="#E6E6E6"
              />
              <path
                opacity="0.1"
                d="M215 112.023V115.371H14.4111V110.535L215 112.023Z"
                fill="black"
              />
              <path
                d="M43.1202 128.763H34.1718L30.4434 126.159H47.2213L43.1202 128.763Z"
                fill="#3F3D56"
              />
              <path
                d="M43.1202 139.551H34.1718L30.4434 136.947H47.2213L43.1202 139.551Z"
                fill="#3F3D56"
              />
              <path
                d="M43.1202 154.804H34.1718L30.4434 152.199H47.2213L43.1202 154.804Z"
                fill="#3F3D56"
              />
              <path
                d="M43.1202 170.056H34.1718L30.4434 167.452H47.2213L43.1202 170.056Z"
                fill="#3F3D56"
              />
              <path
                d="M179.953 130.251H188.901L192.63 127.647H175.852L179.953 130.251Z"
                fill="#3F3D56"
              />
              <path
                d="M179.953 141.039H188.901L192.63 138.435H175.852L179.953 141.039Z"
                fill="#3F3D56"
              />
              <path
                d="M179.953 156.292H188.901L192.63 153.688H175.852L179.953 156.292Z"
                fill="#3F3D56"
              />
              <path
                d="M179.953 171.544H188.901L192.63 168.94H175.852L179.953 171.544Z"
                fill="#3F3D56"
              />
              <path
                d="M186.047 36.334H110.715C110.341 36.3339 109.971 36.4074 109.625 36.5503C109.279 36.6931 108.965 36.9025 108.701 37.1665C108.436 37.4304 108.226 37.7438 108.083 38.0887C107.94 38.4336 107.866 38.8033 107.866 39.1766V89.8084C107.866 90.1817 107.94 90.5514 108.083 90.8963C108.226 91.2412 108.436 91.5545 108.701 91.8185C108.965 92.0825 109.279 92.2919 109.625 92.4347C109.971 92.5775 110.341 92.651 110.715 92.651H139.312L138.24 99.4758C138.24 99.4758 132.118 102.721 136.423 102.817C140.728 102.912 161.009 102.817 161.009 102.817C161.009 102.817 164.931 102.817 158.713 99.3804L157.705 92.651H186.047C186.421 92.651 186.791 92.5775 187.137 92.4347C187.483 92.2919 187.797 92.0825 188.061 91.8185C188.326 91.5545 188.536 91.2412 188.679 90.8963C188.822 90.5514 188.896 90.1817 188.896 89.8084V39.1766C188.896 38.8033 188.822 38.4336 188.679 38.0887C188.536 37.7438 188.326 37.4304 188.061 37.1665C187.797 36.9025 187.483 36.6931 187.137 36.5503C186.791 36.4074 186.421 36.3339 186.047 36.334Z"
                fill="#3F3D56"
              />
              <path
                d="M186.169 39.3406H110.592V81.5306H186.169V39.3406Z"
                fill="#F2F2F2"
              />
              <path
                d="M148.381 38.4816C148.645 38.4816 148.859 38.2679 148.859 38.0044C148.859 37.7408 148.645 37.5271 148.381 37.5271C148.116 37.5271 147.902 37.7408 147.902 38.0044C147.902 38.2679 148.116 38.4816 148.381 38.4816Z"
                fill="#F2F2F2"
              />
              <path
                d="M148.381 90.5986C149.385 90.5986 150.198 89.7867 150.198 88.785C150.198 87.7834 149.385 86.9714 148.381 86.9714C147.377 86.9714 146.563 87.7834 146.563 88.785C146.563 89.7867 147.377 90.5986 148.381 90.5986Z"
                fill="#F2F2F2"
              />
              <path
                d="M145.548 107.971V108.926H94.0796V108.162L94.1503 107.971L95.4188 104.535H144.496L145.548 107.971Z"
                fill="#3F3D56"
              />
              <path
                d="M165.355 107.036C165.261 107.436 164.907 107.858 164.107 108.257C161.237 109.689 155.402 107.875 155.402 107.875C155.402 107.875 150.905 107.112 150.905 105.107C151.032 105.021 151.163 104.943 151.299 104.873C152.506 104.237 156.507 102.665 163.601 104.94C164.123 105.104 164.59 105.409 164.949 105.822C165.108 105.978 165.228 106.169 165.298 106.38C165.369 106.592 165.388 106.816 165.355 107.036Z"
                fill="#3F3D56"
              />
              <path
                opacity="0.1"
                d="M165.355 107.036C161.842 108.379 158.711 108.48 155.498 106.253C154.282 105.356 152.811 104.873 151.3 104.873C152.506 104.237 156.507 102.665 163.601 104.94C164.124 105.104 164.59 105.409 164.949 105.822C165.108 105.978 165.228 106.169 165.299 106.38C165.369 106.592 165.389 106.816 165.355 107.036Z"
                fill="black"
              />
              <path
                d="M160.951 106.253C161.638 106.253 162.194 106.082 162.194 105.871C162.194 105.66 161.638 105.489 160.951 105.489C160.264 105.489 159.707 105.66 159.707 105.871C159.707 106.082 160.264 106.253 160.951 106.253Z"
                fill="#F2F2F2"
              />
              <path
                opacity="0.1"
                d="M145.548 107.971V108.926H94.0796V108.162L94.1503 107.971H145.548Z"
                fill="black"
              />
              <path
                d="M28.617 0.000109716C28.0947 -0.0426815 27.5716 0.073902 27.1172 0.334412C26.671 0.639305 26.3897 1.17345 26.1027 1.6705C25.0051 3.59361 23.5191 5.26832 21.739 6.58855C20.4424 7.53629 18.794 8.718 19.0158 10.4654C19.1329 11.0424 19.3465 11.5957 19.6478 12.1019C20.844 14.5111 24.108 16.3728 23.7869 19.1219C24.9753 17.1369 23.3858 16.1553 24.5742 14.1703C25.1401 13.225 26.1232 12.1579 26.9777 12.7515C27.2638 12.9503 27.4517 13.3068 27.7495 13.4812C28.4603 13.8974 29.2165 13.1018 29.8457 12.5382C32.0154 10.5949 35.1008 11.104 37.8007 11.7095C39.0753 11.9954 40.4753 12.3704 41.2288 13.5859C42.2195 15.184 40.2876 16.91 39.7995 18.7169C39.7596 18.8708 39.7577 19.0321 39.794 19.187C39.8302 19.3418 39.9035 19.4856 40.0076 19.606C40.1117 19.7264 40.2434 19.8199 40.3916 19.8784C40.5398 19.937 40.7 19.9588 40.8585 19.9421C41.6686 19.8624 42.6282 19.7971 42.6762 19.4424C43.6954 19.4785 44.9443 19.3634 45.381 18.3044C45.5145 17.8854 45.5851 17.4491 45.5904 17.0095C45.7507 15.2307 46.5073 13.6079 47.0086 11.9149C47.5099 10.2218 47.7278 8.23777 46.8819 6.73674C46.58 6.23732 46.2066 5.78456 45.7736 5.39278C40.9732 0.757626 34.6618 -0.00677059 28.617 0.000109716Z"
                fill="#2F2E41"
              />
              <path
                d="M24.8313 22.5941C24.8313 22.5941 25.8753 31.2747 22.0473 31.9691C18.2193 32.6636 25.5273 44.4692 25.5273 44.4692L42.9274 46.5525L38.7513 32.6636C38.7513 32.6636 35.9673 31.6219 37.7073 24.6774C39.4474 17.7329 24.8313 22.5941 24.8313 22.5941Z"
                fill="#FFB8B8"
              />
              <path
                d="M14.2173 171.727L15.6094 190.824H22.9172L20.8294 171.727H14.2173Z"
                fill="#FFB8B8"
              />
              <path
                d="M67.8091 135.615L68.853 151.587L76.8573 148.115L73.725 134.921L67.8091 135.615Z"
                fill="#FFB8B8"
              />
              <path
                d="M8.99707 98.8097C8.99707 98.8097 9.34506 118.949 11.4331 125.546C13.5211 132.143 13.1731 132.49 12.8251 133.532C12.4771 134.574 12.1291 133.879 12.1291 135.615C12.1291 137.352 11.4331 164.782 12.1291 167.213C12.8251 169.643 10.0411 173.81 12.1291 174.157C14.2171 174.504 23.9611 174.157 24.3091 172.074C24.6571 169.991 21.5251 169.296 22.9171 167.907C24.3091 166.518 26.3971 138.046 26.3971 138.046L31.2692 118.254L40.3172 107.838H59.4572L65.3733 130.754C65.3733 130.754 62.9373 137.352 64.6773 137.352C66.4173 137.352 76.8573 139.435 76.8573 131.796C76.8573 124.157 73.3773 101.587 72.6813 100.893C71.9853 100.199 73.0293 97.768 71.9853 96.7264C70.9413 95.6847 58.7613 88.393 54.2372 87.0041C49.7132 85.6152 43.3668 83.9622 43.3668 83.9622L8.99707 98.8097Z"
                fill="#2F2E41"
              />
              <path
                d="M76.8573 145.338C76.8573 145.338 71.6373 143.601 69.2013 148.81C66.7653 154.018 67.8093 155.407 67.8093 155.407C67.8093 155.407 75.8133 158.185 77.2053 156.796C77.811 156.192 79.7341 155.982 81.7136 155.937C84.7285 155.87 85.5307 151.614 82.6833 150.623C82.5984 150.593 82.5124 150.568 82.4254 150.546C79.6413 149.851 76.8573 145.338 76.8573 145.338Z"
                fill="#2F2E41"
              />
              <path
                d="M32.6612 28.3232C38.4271 28.3232 43.1013 23.6594 43.1013 17.9064C43.1013 12.1535 38.4271 7.48975 32.6612 7.48975C26.8954 7.48975 22.2212 12.1535 22.2212 17.9064C22.2212 23.6594 26.8954 28.3232 32.6612 28.3232Z"
                fill="#FFB8B8"
              />
              <path
                d="M19.0892 36.3093C19.0892 36.3093 36.1413 39.7815 40.3173 34.226C44.4933 28.6704 46.2333 49.851 46.2333 49.851L48.3213 72.0733L45.1893 84.2261C45.1893 84.2261 28.8332 97.4206 23.6132 98.4623C18.3932 99.504 10.3892 100.198 10.3892 100.198C10.3892 100.198 12.8252 61.6566 12.8252 60.9622C12.8252 60.2677 19.0892 36.3093 19.0892 36.3093Z"
                fill="#22C55E"
              />
              <path
                d="M24.2751 29.7974C24.2751 29.7974 20.4812 27.6289 19.4372 29.7122C18.3932 31.7956 8.64912 37.0039 7.60511 37.0039C6.56111 37.0039 9.69312 65.8234 8.30112 69.2957C6.90911 72.7679 0.29709 98.1152 4.1251 100.199C7.95312 102.282 5.16911 98.1152 8.99712 103.324C12.8251 108.532 31.6172 108.532 32.6612 106.449C33.7052 104.365 24.3092 88.7402 26.0492 74.1568C27.7892 59.5734 30.5732 39.4345 28.1372 36.6567C25.7012 33.8789 24.2751 29.7974 24.2751 29.7974Z"
                fill="#2F2E41"
              />
              <path
                d="M36.8374 32.1427L37.3221 30.4783C37.3221 30.4783 51.8015 35.2677 52.4975 38.3927C53.1935 41.5177 52.8455 63.3928 50.4095 65.1289C47.9734 66.865 44.4934 69.6428 46.9294 73.8095C49.3655 77.9762 52.1494 82.4901 54.2375 82.8373C56.3255 83.1845 60.1535 85.6151 59.1095 88.0457C58.0655 90.4762 45.5374 85.9623 45.5374 85.9623C45.5374 85.9623 37.1854 79.7123 37.5334 69.99C37.8814 60.2678 36.8374 32.1427 36.8374 32.1427Z"
                fill="#2F2E41"
              />
              <path
                d="M49.0171 73.115L40.665 88.74C40.665 88.74 28.485 101.24 35.445 102.629C42.4051 104.018 46.2331 91.1706 46.2331 91.1706L55.2811 78.3234L49.0171 73.115Z"
                fill="#FFB8B8"
              />
              <path
                d="M29.1257 2.72546C28.7049 2.69435 28.2834 2.77592 27.9047 2.96174C27.5624 3.21121 27.2802 3.53385 27.0789 3.90608C26.1507 5.2992 24.9407 6.48322 23.5267 7.38212C22.4712 8.05199 21.1293 8.8872 21.3099 10.1222C21.4079 10.5363 21.5824 10.9286 21.8244 11.2789C22.8015 12.9989 23.1904 14.9896 22.9324 16.9499L25.8346 12.7409C26.2953 12.0727 27.0957 11.3185 27.7912 11.7381C28.0241 11.8786 28.177 12.1306 28.4195 12.2538C28.9982 12.548 29.6137 11.9857 30.1259 11.5873C31.8921 10.2138 34.4038 10.5736 36.6016 11.0016C37.6392 11.2036 38.7789 11.4687 39.3922 12.3278C40.4115 13.7555 39.3472 15.8184 39.9421 17.4677C40.1086 17.3513 40.25 17.2028 40.358 17.031C40.4659 16.8591 40.5382 16.6673 40.5704 16.4671C41.4002 16.4927 42.4168 16.4113 42.7723 15.6628C42.8804 15.3695 42.9381 15.06 42.9427 14.7475C43.0732 13.4903 43.6892 12.3433 44.0972 11.1467C44.5053 9.95012 44.6827 8.54777 43.9941 7.48686C43.7422 7.12739 43.4381 6.80726 43.0919 6.53695C39.1842 3.26086 34.0464 2.7206 29.1257 2.72546Z"
                fill="#2F2E41"
              />
              <path
                d="M49.0174 37.0039L52.2598 37.8626C52.2598 37.8626 59.8054 57.1429 58.0654 70.3374C56.3254 83.5319 55.2814 80.7541 55.2814 80.7541C55.2814 80.7541 52.4974 74.504 46.2334 75.8929L49.0174 37.0039Z"
                fill="#2F2E41"
              />
              <path
                d="M14.6994 188.3C13.8602 189.438 14.0285 191.064 13.2851 192.267C12.6408 193.309 11.4264 193.855 10.6205 194.779C10.3633 195.086 10.134 195.415 9.93537 195.762C9.18773 197.012 8.58002 198.613 9.31636 199.869C9.9087 200.88 11.1538 201.275 12.2956 201.544C13.7389 201.884 15.2384 202.156 16.6983 201.896C18.1583 201.636 19.5851 200.745 20.1056 199.359C20.2079 199.011 20.3295 198.668 20.4699 198.333C21.2612 196.779 23.7432 196.762 24.553 195.217C25.1197 194.136 24.5988 192.83 24.078 191.726L22.4875 188.354C21.9597 187.235 19.8201 187.879 18.7046 187.611C17.2498 187.261 15.746 186.876 14.6994 188.3Z"
                fill="#2F2E41"
              />
              <path
                d="M3.08105 80.0595L17.6971 102.629C17.6971 102.629 26.7451 114.087 29.5291 108.879C32.3132 103.671 19.7851 94.9901 19.7851 94.9901L10.3891 77.6289L3.08105 80.0595Z"
                fill="#FFB8B8"
              />
              <path
                d="M10.3891 37.6984L7.60507 37.0039C7.60507 37.0039 2.03705 38.74 0.645049 46.0317C-0.746955 53.3234 0.297046 82.4902 2.03705 82.8374C3.77706 83.1846 10.6309 77.7589 11.728 78.9092C12.8251 80.0596 9.34507 74.1568 10.3891 71.0318C11.4331 67.9068 10.3891 37.6984 10.3891 37.6984Z"
                fill="#2F2E41"
              />
              <path
                d="M141.227 53.1973H132.233V55.3578H141.227V53.1973Z"
                fill="#22C55E"
              />
              <path
                d="M172.375 53.1973H169.21V55.3578H172.375V53.1973Z"
                fill="#22C55E"
              />
              <path
                d="M178.705 53.1973H175.54V55.3578H178.705V53.1973Z"
                fill="#22C55E"
              />
              <path
                d="M165.879 53.1973H144.392V55.3578H165.879V53.1973Z"
                fill="#22C55E"
              />
              <path
                d="M129.901 67.1575H120.907V69.318H129.901V67.1575Z"
                fill="#22C55E"
              />
              <path
                d="M161.048 67.1575H157.884V69.318H161.048V67.1575Z"
                fill="#22C55E"
              />
              <path
                d="M167.378 67.1575H164.213V69.318H167.378V67.1575Z"
                fill="#22C55E"
              />
              <path
                d="M154.553 67.1575H133.066V69.318H154.553V67.1575Z"
                fill="#22C55E"
              />
              <path
                d="M167.045 58.0168H158.051V60.1773H167.045V58.0168Z"
                fill="#22C55E"
              />
              <path
                d="M179.204 58.0168H170.21V60.1773H179.204V58.0168Z"
                fill="#22C55E"
              />
              <path
                d="M124.071 58.0168H120.907V60.1773H124.071V58.0168Z"
                fill="#22C55E"
              />
              <path
                d="M130.401 58.0168H127.236V60.1773H130.401V58.0168Z"
                fill="#22C55E"
              />
              <path
                d="M155.052 58.0168H133.565V60.1773H155.052V58.0168Z"
                fill="#22C55E"
              />
              <path
                d="M148.39 62.6702H139.396V64.8307H148.39V62.6702Z"
                fill="#22C55E"
              />
              <path
                d="M136.231 62.6702H127.236V64.8307H136.231V62.6702Z"
                fill="#22C55E"
              />
              <path
                d="M124.071 62.6702H120.907V64.8307H124.071V62.6702Z"
                fill="#22C55E"
              />
              <path
                d="M179.204 62.6702H176.04V64.8307H179.204V62.6702Z"
                fill="#22C55E"
              />
              <path
                d="M172.875 62.6702H151.388V64.8307H172.875V62.6702Z"
                fill="#22C55E"
              />
            </g>
            <defs>
              <clipPath id="clip0_729_1817">
                <rect width="215" height="202" fill="white" />
              </clipPath>
            </defs>
          </svg>